# xmcd
#
# Track frame offsets:
#	151
#	12176
#	26186
#	34271
#	55731
#	79970
#	86727
#	102391
#	117017
#	126453
#	154510
#	173039
#	178656
#	185421
#	204502
#	213539
#	231235
#
# Disc length: 3325 seconds
#
# Revision: 0
# Processed by: cddbd v1.4PL0 Copyright (c) Steve Scherf et al.
# Submitted via: dBpowerAMP V4.0
#
DISCID=e80cfb11
DTITLE=Harlem Slim - Delta Thug
DYEAR=2000
DGENRE=Blues
TTITLE0=Harlem Breakdown 
TTITLE1=32-20 Blues 
TTITLE2=Main Street Rag 
TTITLE3=Back Door Friend
TTITLE4=Statesboro Blues
TTITLE5=42nd St. Stroll
TTITLE6=All Around Man 
TTITLE7=Cocaine Blues 
TTITLE8=Delta Thug Stomp
TTITLE9=Terraplane Blues
TTITLE10=Bluebird
TTITLE11=Swing Low, Sweet Chariot
TTITLE12=Evil Spirit 
TTITLE13=When I Lay My Burden Down
TTITLE14=Plantation Song 
TTITLE15=Preachin' Blues
TTITLE16=Conjure Man 
EXTD=
EXTT0=
EXTT1=
EXTT2=
EXTT3=
EXTT4=
EXTT5=
EXTT6=
EXTT7=
EXTT8=
EXTT9=
EXTT10=
EXTT11=
EXTT12=
EXTT13=
EXTT14=
EXTT15=
EXTT16=
PLAYORDER=
